HIERARCHY
ROOT Hips
{
 OFFSET 0.000000 0.000000 0.000000
 CHANNELS 6 Xposition Yposition Zposition Yrotation Xrotation Zrotation
 JOINT Chest
 {
  OFFSET 0.000000 9.585900 0.002600
  CHANNELS 3 Yrotation Xrotation Zrotation
  JOINT Chest2
  {
   OFFSET 0.000000 9.601200 -0.005300
   CHANNELS 3 Yrotation Xrotation Zrotation
   JOINT Chest3
   {
    OFFSET 0.000000 9.561800 0.000000
    CHANNELS 3 Yrotation Xrotation Zrotation
    JOINT Chest4
    {
     OFFSET 0.000000 9.552100 0.000000
     CHANNELS 3 Yrotation Xrotation Zrotation
     JOINT Neck
     {
      OFFSET 0.000000 14.453000 0.000000
      CHANNELS 3 Yrotation Xrotation Zrotation
      JOINT Head
      {
       OFFSET 0.000000 8.936500 -0.011300
       CHANNELS 3 Yrotation Xrotation Zrotation
       End Site
       {
        OFFSET 0.000000 17.073600 -0.006000
       }
      }
     }
     JOINT RightCollar
     {
      OFFSET -2.921100 9.558500 0.000000
      CHANNELS 3 Yrotation Xrotation Zrotation
      JOINT RightShoulder
      {
       OFFSET -13.519700 0.000000 0.000000
       CHANNELS 3 Yrotation Xrotation Zrotation
       JOINT RightElbow
       {
        OFFSET 0.000000 -29.696600 0.000000
        CHANNELS 3 Yrotation Xrotation Zrotation
        JOINT RightWrist
        {
         OFFSET 0.000000 -24.004700 0.000000
         CHANNELS 3 Yrotation Xrotation Zrotation
         End Site
         {
          OFFSET 0.000000 -17.728500 0.000000
         }
        }
       }
      }
     }
     JOINT LeftCollar
     {
      OFFSET 2.921100 9.558500 0.000000
      CHANNELS 3 Yrotation Xrotation Zrotation
      JOINT LeftShoulder
      {
       OFFSET 13.519700 0.000000 0.000000
       CHANNELS 3 Yrotation Xrotation Zrotation
       JOINT LeftElbow
       {
        OFFSET 0.000000 -29.696600 0.000000
        CHANNELS 3 Yrotation Xrotation Zrotation
        JOINT LeftWrist
        {
         OFFSET 0.000000 -24.004700 0.000000
         CHANNELS 3 Yrotation Xrotation Zrotation
         End Site
         {
          OFFSET 0.000000 -17.728500 0.000000
         }
        }
       }
      }
     }
    }
   }
  }
 }
 JOINT RightHip
 {
  OFFSET -7.771700 -0.012900 -0.001300
  CHANNELS 3 Yrotation Xrotation Zrotation
  JOINT RightKnee
  {
   OFFSET 0.000000 -40.869800 0.001200
   CHANNELS 3 Yrotation Xrotation Zrotation
   JOINT RightAnkle
   {
    OFFSET 0.000000 -39.717900 0.002100
    CHANNELS 3 Yrotation Xrotation Zrotation
    JOINT RightToe
    {
     OFFSET 0.000000 -4.965400 11.033500
     CHANNELS 3 Yrotation Xrotation Zrotation
     End Site
     {
      OFFSET 0.000000 -1.423100 5.872300
     }
    }
   }
  }
 }
 JOINT LeftHip
 {
  OFFSET 7.771700 -0.012900 -0.001300
  CHANNELS 3 Yrotation Xrotation Zrotation
  JOINT LeftKnee
  {
   OFFSET 0.000000 -40.869800 0.001200
   CHANNELS 3 Yrotation Xrotation Zrotation
   JOINT LeftAnkle
   {
    OFFSET 0.000000 -39.717900 0.002100
    CHANNELS 3 Yrotation Xrotation Zrotation
    JOINT LeftToe
    {
     OFFSET 0.000000 -4.965400 11.033500
     CHANNELS 3 Yrotation Xrotation Zrotation
     End Site
     {
      OFFSET 0.000000 -1.423100 5.872300
     }
    }
   }
  }
 }
}
MOTION
Frames: 5
Frame Time: 0.008333
6.344354 52.085267 38.677044 170.411298 -38.687172 -1.147685 3.767651 21.888921 2.145196 0.427429 3.079402 0.406509 0.741746 4.971637 0.645780 3.084676 18.553516 2.891575 2.052365 14.231362 -0.829974 4.200789 -9.067564 -2.215790 -4.650439 -4.167654 -3.925562 0.015519 -1.747807 3.851544 -169.544542 -73.497982 -172.624962 4.220527 0.329791 0.376334 -4.018864 -1.949061 0.446169 7.604000 -3.304031 3.847912 -171.437024 -67.719197 154.929833 -11.784032 -14.618095 12.948058 -2.184883 -43.031974 2.542074 144.844507 84.475050 148.478365 -3.185688 -11.845833 -2.074108 0.565032 -0.796788 0.241793 2.008463 -39.066952 5.693164 68.804595 84.111936 58.498029 -5.445046 -12.644315 10.498652 0.425891 1.523986 0.151815
6.339232 52.081711 38.678427 170.410075 -38.689397 -1.165765 3.761410 21.896613 2.166378 0.429545 3.079360 0.411299 0.726708 4.988393 0.661764 3.088604 18.548690 2.896269 2.069515 14.302713 -0.827385 4.244188 -8.928393 -2.209490 -4.602005 -4.142850 -3.906614 0.038761 -1.841591 3.838547 -169.647486 -73.044390 -172.457395 4.137860 -0.098743 0.050826 -4.042336 -1.950356 0.468564 7.441918 -3.365450 3.815318 -172.014481 -67.629274 155.518779 -11.721533 -16.867836 15.399513 -2.208823 -43.024081 2.570632 144.934235 84.489188 148.560469 -3.165566 -11.850900 -2.069965 0.558660 -0.788589 0.240599 1.980372 -39.070256 5.690807 68.874910 84.092566 58.582595 -5.429819 -12.643040 10.486638 0.428566 1.528414 0.148927
6.332991 52.078904 38.679422 170.410354 -38.698550 -1.177175 3.750047 21.908654 2.185643 0.436901 3.078597 0.411843 0.729229 4.989048 0.652531 3.083474 18.555831 2.931280 2.088046 14.383126 -0.822035 4.286421 -8.779265 -2.203623 -4.560937 -4.105677 -3.883311 0.060361 -1.948652 3.818209 -169.747120 -72.606807 -172.301756 4.055518 -0.518129 -0.247724 -4.055633 -1.945687 0.458629 7.242915 -3.437662 3.822140 -172.513422 -67.507227 156.060047 -11.767835 -19.134902 17.924778 -2.227493 -43.010439 2.588547 144.907428 84.492581 148.526292 -3.162602 -11.856418 -2.068680 0.557598 -0.782343 0.241442 1.953033 -39.065757 5.680205 68.963444 84.070223 58.682844 -5.419491 -12.639497 10.473900 0.435180 1.530055 0.147384
6.327769 52.076814 38.680563 170.418221 -38.712689 -1.197836 3.748198 21.922143 2.207353 0.434357 3.075189 0.421572 0.726143 4.998509 0.656641 3.078156 18.552442 2.950938 2.108753 14.471669 -0.815458 4.331348 -8.623973 -2.198358 -4.525508 -4.053215 -3.856653 0.070956 -2.052385 3.782087 -169.793184 -72.170907 -172.196840 3.958946 -0.918669 -0.506933 -4.077329 -1.928208 0.443259 7.029991 -3.523194 3.838148 -172.825252 -67.331887 156.457458 -11.937035 -21.307167 20.496073 -2.250713 -42.990525 2.610121 144.871543 84.497582 148.487175 -3.160176 -11.858377 -2.068839 0.556468 -0.779306 0.242191 1.916832 -39.054904 5.679303 69.026369 84.049594 58.756418 -5.414838 -12.641153 10.460608 0.428967 1.538694 0.157422
6.323241 52.074236 38.683444 170.420269 -38.719036 -1.218217 3.751213 21.923244 2.238967 0.431923 3.068427 0.423019 0.720028 5.002781 0.679142 3.072634 18.559817 2.932738 2.137723 14.561013 -0.786593 4.379878 -8.468321 -2.196436 -4.495512 -3.989516 -3.805558 0.056564 -2.131001 3.719317 -169.724767 -71.718629 -172.183946 3.845025 -1.292603 -0.728998 -4.089981 -1.915279 0.434190 6.785853 -3.603843 3.868051 -172.936007 -67.082518 156.707755 -12.251544 -23.261991 23.037060 -2.269876 -42.978952 2.637070 144.835394 84.506041 148.444972 -3.145035 -11.858278 -2.067108 0.547835 -0.774866 0.244162 1.882402 -39.054549 5.685511 69.105559 84.030151 58.843258 -5.405016 -12.636093 10.445277 0.426916 1.538574 0.162565
